<?xml version="1.0" encoding="UTF-8"?>
<!DOCTYPE svg PUBLIC "-//W3C//DTD SVG 1.1//EN" "http://www.w3.org/Graphics/SVG/1.1/DTD/svg11.dtd">
<svg version="1.2" width="50.02mm" height="50.02mm" viewBox="1800 8400 5002 5002" preserveAspectRatio="xMidYMid" fill-rule="evenodd" stroke-width="28.222" stroke-linejoin="round" xmlns="http://www.w3.org/2000/svg" xmlns:ooo="http://xml.openoffice.org/svg/export" xmlns:xlink="http://www.w3.org/1999/xlink" xml:space="preserve">
 <path fill="rgb(200,46,157)" stroke="none" d="M 6801,10901 C 6801,11339 6685,11771 6466,12151 6247,12531 5931,12847 5551,13066 5171,13285 4739,13401 4301,13401 3862,13401 3430,13285 3050,13066 2670,12847 2354,12531 2135,12151 1916,11771 1800,11339 1800,10901 1800,10462 1916,10030 2135,9650 2354,9270 2670,8954 3050,8735 3430,8516 3862,8400 4300,8400 4739,8400 5171,8516 5551,8735 5931,8954 6247,9270 6466,9650 6685,10030 6801,10462 6801,10900 L 6801,10901 Z"/>
 <path fill="rgb(255,255,255)" stroke="none" d="M 3190,11571 C 3090,10096 5015,9896 4965,9046 5415,9921 3715,10496 4190,11046 4481,11383 5465,10521 5290,9746 5940,11296 3440,12171 4865,12721 3965,12896 3235,12239 3190,11571 Z"/>
 <path fill="rgb(237,194,225)" stroke="none" d="M 3187,11575 C 3150,10762 3562,10425 4234,9946 3359,10646 3409,11371 3559,11796 3709,12221 4159,12771 4859,12721 3962,12900 3250,12250 3187,11575 Z"/>
</svg>