<svg xmlns="http://www.w3.org/2000/svg">
    <symbol id="web" viewBox="0 0 35 35"> 
        <circle cx="12" cy="12" r="9" fill="none" stroke="black" stroke-width="0.5" stroke-linecap="round" stroke-linejoin="round"/>
        <path d="M14.5 3.2c2 2.6 2.8 6 2.8 8.8s-.9 6 -2.8 8.8" fill="none" stroke="black" stroke-width="0.5"/>
        <path d="M9.7 3.4c-2 2.6-2.8 6-2.8 8.8s.9 6 2.8 8.5" fill="none" stroke="black" stroke-width="0.5" stroke-linecap="round"/>
        <path d="M3.5 10.3c2.125-.716 5.1-1 7.7-1s5.008-.09 9.232 1.017" fill="none" stroke="black" stroke-width="0.5" stroke-linecap="round"/>
        <path d="M3.505 14.964c2.125-.716 5.1-1 7.7-1s5.008-.09 9.232 1.017" fill="none" stroke="black" stroke-width="0.5" stroke-linecap="round"/>
        <line x1="12" y1="3.5" x2="12" y2="20.7" stroke="black" stroke-width="0.5" stroke-linecap="round"/>     
    </symbol>

    <symbol id="desktop" viewBox="0 0 35 35">
        <path d="M3.5 8c0-.957.001-1.624.069-2.128.066-.49.186-.748.37-.933.185-.184.444-.304.933-.37C5.376 4.5 6.043 4.5 7 4.5h10c.957 0 1.624.001 2.128.069.49.066.748.186.933.37.184.185.305.444.37.933.068.504.069 1.171.069 2.128v8.5h-17zm.167 8.5c-.645 0-1.167.522-1.167 1.167 0 1.012.82 1.833 1.833 1.833h15.334c1.012 0 1.833-.82 1.833-1.833 0-.645-.522-1.167-1.167-1.167z" fill="none" stroke-width="0.5" stroke="#222" stroke-linecap="round" stroke-linejoin="round"/>
    </symbol>

    <symbol id="database" viewBox="0 0 90 90">
        <path d="M56 16v32c0 4.42-10.75 8-24 8S8 52.42 8 48V16c0-4.42 10.75-8 24-8s24 3.58 24 8z" fill="none" stroke-width="1" stroke="black"/>
        <path d="M56 16c0 4.42-10.75 8-24 8S8 20.42 8 16m48 16c0 4.42-10.75 8-24 8S8 36.42 8 32" fill="none" stroke-width="1" stroke="black"/>    
    </symbol>

    <symbol id="cloud" viewBox="0 0 35 35">
        <path d="M14.381 9.027a5.8 5.8 0 0 1 1.905-.321c.654 0 1.283.109 1.87.309m-11.04 2.594a4.4 4.4 0 0 0-.83-.08C3.919 11.53 2 13.426 2 15.765S3.919 20 6.286 20h10C19.442 20 22 17.472 22 14.353c0-2.472-1.607-4.573-3.845-5.338M7.116 11.609a5.6 5.6 0 0 1-.354-1.962C6.762 6.528 9.32 4 12.476 4c2.94 0 5.361 2.194 5.68 5.015m-11.04 2.594a4.3 4.3 0 0 1 1.55.634" fill="none" stroke="black" stroke-width="0.5" stroke-linecap="round" stroke-linejoin="round"/>    
    </symbol>

    <symbol id="arrow">
        <path d="m17 14.5-5 5-5-5" stroke-linejoin="round" fill="none"/>
    </symbol>
</svg>